<svg width="592" height="500" viewBox="0 0 592 500" fill="none" xmlns="http://www.w3.org/2000/svg">
<g clip-path="url(#clip0)">
<path d="M296 500C434.071 500 546 388.071 546 250C546 111.929 434.071 0 296 0C157.929 0 46 111.929 46 250C46 388.071 157.929 500 296 500Z" fill="#EEF5FF"/>
<path d="M263.969 417.475C291.679 417.475 314.141 412.51 314.141 406.385C314.141 400.26 291.679 395.295 263.969 395.295C236.26 395.295 213.797 400.26 213.797 406.385C213.797 412.51 236.26 417.475 263.969 417.475Z" fill="#212529"/>
<path d="M263.97 406.385L235.787 494.59" stroke="#212529" stroke-width="4" stroke-miterlimit="10" stroke-linecap="round"/>
<path d="M263.97 406.385L292.152 494.59" stroke="#212529" stroke-width="4" stroke-miterlimit="10" stroke-linecap="round"/>
<path d="M245.041 465.628L276.459 445.483" stroke="#212529" stroke-width="2" stroke-miterlimit="10" stroke-linecap="round"/>
<path d="M251.353 445.483L282.779 465.628" stroke="#212529" stroke-width="2" stroke-miterlimit="10" stroke-linecap="round"/>
<path d="M313.347 310.906C313.22 314.818 313.275 328.515 312.631 334.374" stroke="#212529" stroke-miterlimit="10" stroke-linecap="round"/>
<path d="M151.939 137.677C151.939 134.898 149.686 132.645 146.907 132.645C144.128 132.645 141.875 134.898 141.875 137.677V155.048C141.875 157.827 144.128 160.08 146.907 160.08C149.686 160.08 151.939 157.827 151.939 155.048V137.677Z" fill="#212529"/>
<path d="M146.907 189.28C152.483 189.28 157.003 184.76 157.003 179.184C157.003 173.608 152.483 169.087 146.907 169.087C141.331 169.087 136.811 173.608 136.811 179.184C136.811 184.76 141.331 189.28 146.907 189.28Z" fill="#FFD43B"/>
<path d="M484.445 299.093H489.215C489.716 299.091 490.196 298.891 490.551 298.537C490.905 298.182 491.105 297.702 491.107 297.201V267.882C491.108 267.633 491.059 267.387 490.963 267.158C490.868 266.928 490.728 266.72 490.551 266.546L484.525 260.52C484.35 260.344 484.142 260.204 483.912 260.108C483.683 260.013 483.437 259.964 483.189 259.963H465.389C464.888 259.965 464.408 260.165 464.054 260.52C463.699 260.874 463.499 261.354 463.497 261.855V264.686" fill="#CCEEFF"/>
<path d="M70.0072 369.052C85.1121 371.914 82.417 462.066 53.4236 456.613C26.0441 451.414 51.5792 365.546 70.0072 369.052Z" fill="#212529"/>
<path d="M70.0072 369.052C85.1121 371.914 82.417 462.066 53.4236 456.613C26.0441 451.414 51.5792 365.546 70.0072 369.052Z" fill="url(#paint0_linear)"/>
<path d="M3.68871 380.182C15.709 373.377 66.0242 436.691 43.0091 449.713C21.266 462.067 -10.9471 388.482 3.68871 380.182Z" fill="url(#paint1_linear)"/>
<path d="M64.9432 500.162H34.5903C33.3677 500.162 32.1882 499.711 31.2774 498.896C30.3666 498.08 29.7884 496.957 29.6534 495.742L25.8215 461.335C25.7384 460.637 25.8041 459.93 26.0142 459.259C26.2243 458.588 26.5741 457.97 27.0405 457.444C27.5068 456.918 28.0793 456.497 28.7201 456.209C29.361 455.92 30.0556 455.771 30.7584 455.77H68.616C69.3132 455.77 70.0025 455.918 70.639 456.202C71.2756 456.486 71.8452 456.901 72.3109 457.42C72.7765 457.939 73.1277 458.55 73.3417 459.214C73.5557 459.877 73.6277 460.578 73.5529 461.271L69.888 495.679C69.7659 496.906 69.1924 498.044 68.2788 498.873C67.3651 499.701 66.1764 500.161 64.9432 500.162Z" fill="#002D99"/>
<path d="M78.5372 333.945C90.0408 337.284 81.2243 406.87 59.195 400.462C38.398 394.421 64.5374 329.875 78.5372 333.945Z" fill="url(#paint2_linear)"/>
<path d="M97.5061 389.309C105.456 396.161 73.1157 448.583 57.8359 435.418C43.4067 423.04 87.7992 380.977 97.5061 389.309Z" fill="url(#paint3_linear)"/>
<path d="M49.8462 341.18C67.0658 341.18 82.8305 451.127 49.8462 451.127C18.6983 451.127 28.8822 341.18 49.8462 341.18Z" fill="url(#paint4_linear)"/>
<path d="M80.0639 448.329H19.4854C17.7071 448.329 16.2656 449.771 16.2656 451.549V457.416C16.2656 459.194 17.7071 460.636 19.4854 460.636H80.0639C81.8421 460.636 83.2836 459.194 83.2836 457.416V451.549C83.2836 449.771 81.8421 448.329 80.0639 448.329Z" fill="#0055FF"/>
<path d="M476.432 264.686H458.942C458.662 264.686 458.384 264.741 458.125 264.848C457.866 264.956 457.631 265.114 457.433 265.312C457.235 265.511 457.078 265.747 456.971 266.006C456.865 266.266 456.81 266.544 456.812 266.824V301.645C456.812 302.211 457.036 302.753 457.435 303.154C457.834 303.555 458.376 303.781 458.942 303.783H482.307C482.873 303.781 483.415 303.555 483.814 303.154C484.213 302.753 484.438 302.211 484.438 301.645V272.707C484.439 272.427 484.384 272.149 484.278 271.89C484.172 271.631 484.015 271.395 483.817 271.197L477.935 265.314C477.537 264.914 476.996 264.688 476.432 264.686Z" fill="#77AAFF"/>
<path d="M484.446 271.872H478.507C478.191 271.872 477.887 271.747 477.664 271.523C477.44 271.299 477.314 270.996 477.314 270.68V264.686" fill="#0055FF"/>
<path d="M491.131 267.158H485.193C484.875 267.156 484.571 267.029 484.346 266.804C484.121 266.579 483.994 266.275 483.992 265.958V259.963" fill="#AACCFF"/>
<path d="M456.835 224.88H415.845C414.515 224.88 413.437 225.959 413.437 227.289V240.677C413.437 242.007 414.515 243.086 415.845 243.086H456.835C458.166 243.086 459.244 242.007 459.244 240.677V227.289C459.244 225.959 458.166 224.88 456.835 224.88Z" fill="#AACCFF"/>
<path d="M436.332 255.567L441.849 238.856H430.815L436.332 255.567Z" fill="#AACCFF"/>
<path d="M425.401 229.729L420.774 237.735H430.02L425.401 229.729Z" fill="white"/>
<path d="M447.271 237.735L451.898 229.729H442.645L447.271 237.735Z" fill="white"/>
<path d="M436.332 237.21C438.251 237.21 439.806 235.655 439.806 233.736C439.806 231.818 438.251 230.262 436.332 230.262C434.413 230.262 432.858 231.818 432.858 233.736C432.858 235.655 434.413 237.21 436.332 237.21Z" fill="white"/>
<path d="M432.763 186.299H405.86C404.697 186.299 403.753 187.243 403.753 188.406V204.672C403.753 205.835 404.697 206.778 405.86 206.778H432.763C433.926 206.778 434.869 205.835 434.869 204.672V188.406C434.869 187.243 433.926 186.299 432.763 186.299Z" fill="#AACCFF"/>
<path d="M404.731 186.943L419.312 196.538" stroke="#77AAFF" stroke-width="0.82" stroke-linecap="round" stroke-linejoin="round"/>
<path d="M434.87 186.299L419.312 196.539" stroke="#77AAFF" stroke-width="0.82" stroke-linecap="round" stroke-linejoin="round"/>
<path d="M434.869 190.751C437.328 190.751 439.321 188.758 439.321 186.299C439.321 183.84 437.328 181.847 434.869 181.847C432.411 181.847 430.417 183.84 430.417 186.299C430.417 188.758 432.411 190.751 434.869 190.751Z" fill="#0055FF"/>
<path d="M435.598 189H434.935V184.605L433.606 185.093V184.495L435.495 183.785H435.598V189Z" fill="white"/>
<path d="M591.022 198.789H474.953C474.413 198.789 473.975 199.226 473.975 199.766V200.371C473.975 200.911 474.413 201.348 474.953 201.348H591.022C591.562 201.348 592 200.911 592 200.371V199.766C592 199.226 591.562 198.789 591.022 198.789Z" fill="#AACCFF"/>
<path d="M523.98 147.957H516.929C515.805 147.957 514.894 148.868 514.894 149.992V196.753C514.894 197.877 515.805 198.788 516.929 198.788H523.98C525.104 198.788 526.016 197.877 526.016 196.753V149.992C526.016 148.868 525.104 147.957 523.98 147.957Z" fill="#0055FF"/>
<path d="M529.887 159.874H527.709C526.774 159.874 526.016 160.632 526.016 161.567V197.095C526.016 198.03 526.774 198.788 527.709 198.788H529.887C530.822 198.788 531.581 198.03 531.581 197.095V161.567C531.581 160.632 530.822 159.874 529.887 159.874Z" fill="#AACCFF"/>
<path d="M535.508 159.874H533.218C532.314 159.874 531.581 160.607 531.581 161.511V197.151C531.581 198.055 532.314 198.788 533.218 198.788H535.508C536.412 198.788 537.146 198.055 537.146 197.151V161.511C537.146 160.607 536.412 159.874 535.508 159.874Z" fill="#0055FF"/>
<path d="M539.543 162.659L537.665 163.521C536.787 163.924 536.402 164.963 536.805 165.84L551.582 198.027C551.985 198.905 553.023 199.29 553.901 198.887L555.78 198.025C556.658 197.622 557.043 196.583 556.64 195.705L541.862 163.519C541.459 162.641 540.421 162.256 539.543 162.659Z" fill="#AACCFF"/>
<path d="M520.451 185.925C522.167 185.925 523.559 184.534 523.559 182.817C523.559 181.1 522.167 179.708 520.451 179.708C518.734 179.708 517.342 181.1 517.342 182.817C517.342 184.534 518.734 185.925 520.451 185.925Z" fill="#77AAFF"/>
<path d="M523.265 187.786H517.636C517.224 187.786 516.889 188.12 516.889 188.533C516.889 188.946 517.224 189.28 517.636 189.28H523.265C523.678 189.28 524.012 188.946 524.012 188.533C524.012 188.12 523.678 187.786 523.265 187.786Z" fill="#77AAFF"/>
<path d="M523.265 191.61H517.636C517.224 191.61 516.889 191.944 516.889 192.357C516.889 192.77 517.224 193.104 517.636 193.104H523.265C523.678 193.104 524.012 192.77 524.012 192.357C524.012 191.944 523.678 191.61 523.265 191.61Z" fill="#77AAFF"/>
<path d="M466.311 268.279H460.683C460.27 268.279 459.936 268.613 459.936 269.026C459.936 269.439 460.27 269.773 460.683 269.773H466.311C466.724 269.773 467.059 269.439 467.059 269.026C467.059 268.613 466.724 268.279 466.311 268.279Z" fill="#0055FF"/>
<path d="M466.311 271.873H460.683C460.27 271.873 459.936 272.207 459.936 272.62C459.936 273.033 460.27 273.367 460.683 273.367H466.311C466.724 273.367 467.059 273.033 467.059 272.62C467.059 272.207 466.724 271.873 466.311 271.873Z" fill="#0055FF"/>
<path d="M480.908 278.018H460.357C459.944 278.018 459.61 278.352 459.61 278.765C459.61 279.178 459.944 279.512 460.357 279.512H480.908C481.32 279.512 481.655 279.178 481.655 278.765C481.655 278.352 481.32 278.018 480.908 278.018Z" fill="#0055FF"/>
<path d="M480.908 281.547H460.357C459.944 281.547 459.61 281.882 459.61 282.295C459.61 282.707 459.944 283.042 460.357 283.042H480.908C481.32 283.042 481.655 282.707 481.655 282.295C481.655 281.882 481.32 281.547 480.908 281.547Z" fill="#0055FF"/>
<path d="M480.908 285.077H460.357C459.944 285.077 459.61 285.412 459.61 285.824C459.61 286.237 459.944 286.572 460.357 286.572H480.908C481.32 286.572 481.655 286.237 481.655 285.824C481.655 285.412 481.32 285.077 480.908 285.077Z" fill="#0055FF"/>
<path d="M529.379 165.748C529.379 165.428 529.119 165.168 528.798 165.168C528.478 165.168 528.218 165.428 528.218 165.748V192.905C528.218 193.226 528.478 193.486 528.798 193.486C529.119 193.486 529.379 193.226 529.379 192.905V165.748Z" fill="#4488FF"/>
<path d="M504.964 200.068H499.987C498.894 200.068 498.008 200.955 498.008 202.048C498.008 203.141 498.894 204.027 499.987 204.027H504.964C506.057 204.027 506.944 203.141 506.944 202.048C506.944 200.955 506.057 200.068 504.964 200.068Z" fill="#AACCFF"/>
<path d="M565.988 200.068H561.011C559.918 200.068 559.032 200.955 559.032 202.048C559.032 203.141 559.918 204.027 561.011 204.027H565.988C567.081 204.027 567.967 203.141 567.967 202.048C567.967 200.955 567.081 200.068 565.988 200.068Z" fill="#AACCFF"/>
<path d="M378.139 203.94H349.114C343.845 203.94 339.574 208.211 339.574 213.48V227.639C339.574 232.907 343.845 237.179 349.114 237.179H378.139C383.408 237.179 387.679 232.907 387.679 227.639V213.48C387.679 208.211 383.408 203.94 378.139 203.94Z" fill="#0055FF"/>
<path d="M356.761 209.291H349.527V231.829H356.761V209.291Z" fill="#77AAFF"/>
<path d="M367.247 224.284H360.013V231.837H367.247V224.284Z" fill="#77AAFF"/>
<path d="M377.725 217.924H370.491V231.828H377.725V217.924Z" fill="#77AAFF"/>
<path d="M146.907 148.744C142.909 148.743 138.949 149.529 135.255 151.058C131.561 152.588 128.205 154.83 125.377 157.657C122.55 160.483 120.307 163.839 118.776 167.533C117.246 171.227 116.458 175.186 116.458 179.184H177.355C177.355 175.186 176.567 171.227 175.037 167.533C173.507 163.839 171.264 160.483 168.436 157.657C165.609 154.83 162.252 152.588 158.558 151.058C154.864 149.529 150.905 148.743 146.907 148.744Z" fill="url(#paint5_linear)"/>
<path d="M147 138L147 50" stroke="#212529" stroke-width="2" stroke-linecap="round" stroke-linejoin="round"/>
<path d="M385.723 484.072C385.723 485.956 384.618 497.841 386.82 498.938C389.022 500.035 413.23 500.703 414.327 499.598C415.424 498.493 416.084 496.188 415.122 495.528C414.16 494.868 404.787 493 403.515 492.117C402.243 491.235 400.486 486.552 401.13 484.072" fill="#212529"/>
<path d="M313.347 328.707L326.973 323.817C326.384 298.958 320.573 243.412 312.321 235.152C310.381 233.22 272.015 229.849 265.17 229.849C224.323 229.849 212.207 234.508 209.131 237.592C199.591 247.132 196.618 291.334 196.618 306.812C196.618 322.291 240.342 330.32 240.342 330.32L291.596 333.842C291.596 333.842 302.837 335.003 312.56 335.575C312.774 332.594 313.347 328.707 313.347 328.707Z" fill="url(#paint6_linear)"/>
<path d="M353.947 343.119C357.676 342.014 394.754 335.964 402.831 343.914C410.909 351.864 436.332 465.843 436.332 468.466H415.861L388.227 408.993" fill="#002D99"/>
<path d="M218.949 332.984C218.019 337.634 212.43 342.627 212.43 367.963C212.43 402.999 241.129 403.738 251.433 403.738C283.534 403.738 335.471 394.198 338.977 392.449C341.307 396.345 384.181 483.873 384.379 485.829H404.119C404.119 485.829 391.884 354.878 369.807 340.027C362.636 335.257 235.413 330.153 218.949 332.984Z" fill="url(#paint7_linear)"/>
<path d="M334.541 307.369C329.358 307.369 325.081 308.601 313.347 310.906L312.734 333.357C323.864 328.873 326.448 322.64 329.676 322.64C337.737 322.64 341.95 326.798 346.712 326.798C350.035 326.798 356.014 324.191 356.014 320.645C356.014 313.22 340.965 307.369 334.541 307.369Z" fill="#F08C00"/>
<path d="M417.022 466.892C417.022 468.784 415.917 480.661 418.119 481.766C420.321 482.871 444.529 483.523 445.626 482.426C446.723 481.329 447.383 479.016 446.421 478.356C445.459 477.696 436.086 475.82 434.814 474.937C433.542 474.055 431.785 469.372 432.429 466.892" fill="#212529"/>
<path d="M272.397 235.136C272.397 238.133 254.994 238.22 254.994 235.136V210.761H272.397V235.136Z" fill="#F08C00"/>
<path opacity="0.24" d="M266.728 218.798C265.138 218.798 254.994 223.282 254.994 225.786V212.558C257.522 212.558 266.728 218.798 266.728 218.798Z" fill="#212529"/>
<path d="M270.091 219.832C281.726 219.832 291.159 210.4 291.159 198.765C291.159 187.129 281.726 177.697 270.091 177.697C258.456 177.697 249.024 187.129 249.024 198.765C249.024 210.4 258.456 219.832 270.091 219.832Z" fill="#F08C00"/>
<path d="M291.834 182.229C289.227 186.371 283.773 188.271 277.866 188.271C272.834 188.271 265.504 186.808 260.289 189.781C257.467 191.371 254.231 194.989 253.579 202.231C253.579 203.471 252.172 208.281 252.172 209.831C252.172 210.888 250.979 211.58 248.992 211.58C247.966 211.58 245.939 209.919 245.939 207.382C245.939 204.449 247.108 203.408 247.108 200.919C247.108 198.431 244.063 196.038 244.063 189.121C244.063 179.16 250.423 173.023 254.923 173.023C259.025 173.023 260.313 173.977 260.829 174.382C260.829 165.327 272.754 161.193 277.485 161.193C282.89 161.193 285.434 163.411 285.434 166.234C285.434 170.733 283.288 174.557 282.199 175.416C284.664 173.198 287.866 171.977 291.182 171.989C297.375 171.989 299.458 176.06 299.458 178.842C299.458 184.892 292.2 190.497 289.497 190.497C288.817 189.058 288.019 187.678 287.112 186.371" fill="#212529"/>
<path d="M254.231 206.039C256.712 206.039 258.723 204.028 258.723 201.547C258.723 199.067 256.712 197.056 254.231 197.056C251.75 197.056 249.739 199.067 249.739 201.547C249.739 204.028 251.75 206.039 254.231 206.039Z" fill="#F08C00"/>
<path d="M282.859 197.056C283.511 197.986 286.834 201.889 283.328 203.471" stroke="#212529" stroke-miterlimit="10" stroke-linecap="round"/>
<path d="M276.308 208.026C275.258 208.026 273.645 206.722 272.794 205.554" stroke="#212529" stroke-miterlimit="10" stroke-linecap="round"/>
<path d="M304.085 264.606C305.675 267.985 313.347 300.579 313.347 310.906" stroke="#212529" stroke-miterlimit="10" stroke-linecap="round"/>
<path d="M196.618 304.189C196.618 340.83 196.96 351.459 211.667 351.459C245.565 351.459 296.811 323.635 305.945 323.635C314.014 323.635 318.228 327.8 322.99 327.8C326.305 327.8 332.283 325.185 332.283 321.647C332.283 314.214 317.234 308.363 310.819 308.363C296.373 308.363 238.728 322.291 237.321 322.291C235.914 322.291 233.545 321.679 233.545 319.31C233.545 315.009 236.359 305.071 236.725 304.205L196.618 304.189Z" fill="#F08C00"/>
<path d="M245.192 272.23C244.222 275.02 236.662 303.855 235.787 307.369" stroke="#212529" stroke-miterlimit="10" stroke-linecap="round"/>
<path d="M532.215 495.255C532.787 497.429 535.012 498.728 537.186 498.157C539.361 497.585 540.66 495.359 540.088 493.185L499.386 338.366C498.814 336.192 496.588 334.893 494.414 335.464C492.24 336.036 490.941 338.262 491.512 340.436L532.215 495.255Z" fill="#77AAFF"/>
<path d="M491.108 340.443C491.679 338.268 490.38 336.043 488.206 335.471C486.032 334.899 483.806 336.199 483.235 338.373L442.532 493.192C441.96 495.366 443.26 497.591 445.434 498.163C447.608 498.735 449.834 497.436 450.405 495.261L491.108 340.443Z" fill="#77AAFF"/>
<path d="M434.943 340.442C435.514 338.267 434.215 336.042 432.041 335.47C429.867 334.898 427.641 336.198 427.07 338.372L386.367 493.191C385.795 495.365 387.094 497.59 389.269 498.162C391.443 498.734 393.668 497.435 394.24 495.26L434.943 340.442Z" fill="#77AAFF"/>
<path d="M475.342 492.397C475.904 494.578 478.127 495.89 480.308 495.328C482.489 494.766 483.801 492.543 483.239 490.362L443.219 335.085C442.657 332.904 440.433 331.592 438.253 332.154C436.072 332.716 434.76 334.939 435.322 337.12L475.342 492.397Z" fill="#77AAFF"/>
<path d="M205.65 340.446C206.222 338.272 204.923 336.046 202.749 335.474C200.574 334.903 198.349 336.202 197.777 338.376L157.074 493.195C156.503 495.369 157.802 497.595 159.976 498.166C162.15 498.738 164.376 497.439 164.948 495.265L205.65 340.446Z" fill="#77AAFF"/>
<path d="M246.066 495.265C246.637 497.439 248.863 498.738 251.037 498.167C253.211 497.595 254.51 495.369 253.939 493.195L213.236 338.376C212.664 336.202 210.439 334.903 208.265 335.475C206.09 336.046 204.791 338.272 205.363 340.446L246.066 495.265Z" fill="#77AAFF"/>
<path d="M516.166 327.824H122.509C120.52 327.824 118.907 329.436 118.907 331.425V336.267C118.907 338.256 120.52 339.868 122.509 339.868H516.166C518.155 339.868 519.767 338.256 519.767 336.267V331.425C519.767 329.436 518.155 327.824 516.166 327.824Z" fill="#AACCFF"/>
<path d="M147.476 340.448C148.048 338.274 146.749 336.048 144.575 335.476C142.401 334.905 140.175 336.204 139.603 338.378L98.9006 493.197C98.329 495.371 99.6281 497.597 101.802 498.168C103.976 498.74 106.202 497.441 106.774 495.267L147.476 340.448Z" fill="#77AAFF"/>
<path d="M187.892 495.265C188.463 497.439 190.689 498.738 192.863 498.167C195.037 497.595 196.336 495.369 195.765 493.195L155.062 338.376C154.491 336.202 152.265 334.903 150.091 335.475C147.917 336.046 146.617 338.272 147.189 340.446L187.892 495.265Z" fill="#77AAFF"/>
<path d="M413.619 327.824H340.074L353.398 282.001C353.731 280.895 354.413 279.927 355.341 279.24C356.27 278.554 357.395 278.186 358.55 278.193H420.957C421.777 278.179 422.588 278.358 423.327 278.714C424.065 279.07 424.71 279.593 425.211 280.243C425.711 280.892 426.053 281.649 426.209 282.454C426.364 283.259 426.33 284.089 426.108 284.878L413.619 327.824Z" fill="#212529"/>
<path d="M385.874 307.504C388.359 307.504 390.374 305.489 390.374 303.004C390.374 300.519 388.359 298.504 385.874 298.504C383.389 298.504 381.375 300.519 381.375 303.004C381.375 305.489 383.389 307.504 385.874 307.504Z" fill="white"/>
<path d="M348.812 324.604H297.208V327.824H348.812V324.604Z" fill="#212529"/>
</g>
<defs>
<linearGradient id="paint0_linear" x1="41.4253" y1="368.948" x2="105.028" y2="396.174" gradientUnits="userSpaceOnUse">
<stop stop-color="#AACCFF"/>
<stop offset="1" stop-color="#EEF5FF"/>
</linearGradient>
<linearGradient id="paint1_linear" x1="0.00195312" y1="379.672" x2="66.6252" y2="425.334" gradientUnits="userSpaceOnUse">
<stop stop-color="#AACCFF"/>
<stop offset="1" stop-color="#EEF5FF"/>
</linearGradient>
<linearGradient id="paint2_linear" x1="51.4502" y1="333.761" x2="103.746" y2="358.807" gradientUnits="userSpaceOnUse">
<stop stop-color="#AACCFF"/>
<stop offset="1" stop-color="#EEF5FF"/>
</linearGradient>
<linearGradient id="paint3_linear" x1="54.9771" y1="388.225" x2="103.934" y2="431.684" gradientUnits="userSpaceOnUse">
<stop stop-color="#AACCFF"/>
<stop offset="1" stop-color="#EEF5FF"/>
</linearGradient>
<linearGradient id="paint4_linear" x1="30.1211" y1="341.18" x2="99.3969" y2="365.75" gradientUnits="userSpaceOnUse">
<stop stop-color="#AACCFF"/>
<stop offset="1" stop-color="#EEF5FF"/>
</linearGradient>
<linearGradient id="paint5_linear" x1="116.458" y1="148.744" x2="140.807" y2="197.453" gradientUnits="userSpaceOnUse">
<stop stop-color="#EEF5FF"/>
<stop offset="1" stop-color="#AACCFF"/>
</linearGradient>
<linearGradient id="paint6_linear" x1="269.604" y1="229.962" x2="204.54" y2="339.652" gradientUnits="userSpaceOnUse">
<stop stop-color="#77AAFF"/>
<stop offset="1" stop-color="#4488FF"/>
</linearGradient>
<linearGradient id="paint7_linear" x1="212.772" y1="485.95" x2="189.916" y2="359.839" gradientUnits="userSpaceOnUse">
<stop stop-color="#0055FF"/>
<stop offset="1" stop-color="#002D99"/>
</linearGradient>
<clipPath id="clip0">
<rect width="592" height="500" fill="white"/>
</clipPath>
</defs>
</svg>
